<svg xmlns="http://www.w3.org/2000/svg" viewBox="0 0 32 32">
  <!-- Background circle -->
  <circle cx="16" cy="16" r="14" fill="#4F46E5" stroke="#312E81" stroke-width="2"/>
  
  <!-- Brain icon simplified -->
  <g fill="#FFFFFF">
    <!-- Left hemisphere -->
    <path d="M11 10c-2 0-3.5 1.5-3.5 3.5 0 1.5 1 2.5 2 3 0 1.5 1 3 2.5 3.5 0.5 0.5 1.5 1 2.5 1 1 0 1.5-0.5 1.5-0.5V10H11z" opacity="0.9"/>
    
    <!-- Right hemisphere -->
    <path d="M21 10c2 0 3.5 1.5 3.5 3.5 0 1.5-1 2.5-2 3 0 1.5-1 3-2.5 3.5-0.5 0.5-1.5 1-2.5 1-1 0-1.5-0.5-1.5-0.5V10H21z" opacity="0.9"/>
    
    <!-- Center connection -->
    <rect x="15" y="10" width="2" height="10" rx="1" fill="#E0E7FF"/>
  </g>
  
  <!-- Question mark overlay -->
  <text x="16" y="26" font-family="Arial, sans-serif" font-size="10" font-weight="bold" text-anchor="middle" fill="#FCD34D">?</text>
</svg>